<svg version="1.1" id="Capa_2" xmlns="http://www.w3.org/2000/svg" xmlns:xlink="http://www.w3.org/1999/xlink" x="0px" y="0px"
	 width="1640px" height="1580px" viewBox="0 0 1640 1580" enable-background="new 0 0 1640 1580" xml:space="preserve">
<polyline fill="none" stroke="#1E1E1E" class="yellow" stroke-width="0.695" stroke-miterlimit="10" points="321.367,709.332 433.979,694.066 
	355.285,550.139 479.921,526.161 423.983,431.765 320.861,709.474 352.653,551.889 437.104,812.272 437.706,814.123 582.956,791.72 
	431.234,693.02 439.649,812.115 657.268,645.233 547.962,631.059 584.639,790.395 617.529,503.197 656.679,642.652 "/>
<polyline fill="none" stroke="#1E1E1E" class="yellow" stroke-width="0.695" stroke-miterlimit="10" points="715.176,882.094 626.377,823.113 
	800.85,573.424 688.952,658.2 877.172,773.139 874.806,774.342 789.643,817.547 798.878,572.569 799.334,574.844 879.872,973.272 
	880.553,976.655 931.697,933.531 878.251,775.541 974.183,639.007 993.186,769.104 875.363,776.834 883.603,977.022 "/>
<polyline fill="none" stroke="#1E1E1E" class="yellow" stroke-width="0.695" stroke-miterlimit="10" points="717.693,883.852 691.616,659.317 
	629.478,822.297 791.137,815.723 993.188,769.105 880.556,976.654 972.14,637.032 "/>
<polyline fill="none" stroke="#1E1E1E" class="yellow" stroke-width="0.695" stroke-miterlimit="10" points="982.939,908.541 1197.426,722.316 
	1199.231,720.747 1046.274,758.104 1061.565,1047.336 983.002,905.41 1214.891,1070.926 1204.501,953.541 1325.609,961.605 
	1318.301,809.084 1188.039,816.806 1200.199,717.882 1202.964,723.235 1327.118,963.525 1219.999,1069.287 1067.038,1049.524 
	1091.638,926.203 979.702,908.187 1184.906,815.612 1049.104,760.252 1322.461,811.119 1196.713,718.794 "/>
<polyline fill="none" stroke="#1E1E1E" class="yellow" stroke-width="0.695" stroke-miterlimit="10" points="615.739,501.934 197.782,1279.418 
	997.161,769.887 882.928,978.586 1319.291,810.805 1200.352,456.427 1200.335,723.015 "/>
<polyline fill="none" stroke="#1E1E1E" class="yellow" stroke-width="0.695" stroke-miterlimit="10" points="422.205,430.243 373.41,292.34 
	1218.076,1070.796 1273.073,1486.277 709.491,883.176 1006.218,3.739 "/>
</svg>
